<svg id="Outline_Icons" data-name="Outline Icons" xmlns="http://www.w3.org/2000/svg" xmlns:xlink="http://www.w3.org/1999/xlink" viewBox="0 0 78 39"><defs><style>.cls-1{fill:#f59a00;}.cls-2{fill:#77777a;}.cls-3{clip-path:url(#clip-path);}.cls-4{fill:url(#linear-gradient);}.cls-5{fill:url(#linear-gradient-2);}.cls-6{fill:url(#linear-gradient-3);}.cls-7{fill:url(#linear-gradient-4);}</style><clipPath id="clip-path"><path class="cls-1" d="M37.36,33.12a3,3,0,0,1-3.46.59h0L22.2,28a11.47,11.47,0,0,0-4.43-1.13,3.32,3.32,0,0,0-2.43.87,2.9,2.9,0,0,0-.8,1.74L14,35.62a3.74,3.74,0,1,1-6.91-2.31h0l.12-.19,2.3-3.4.44-.68c1.4-2.06,1.86-3.75,1.36-5-.61-1.59-1.45-2.19-3.32-2.39l-5.29-.56a1.78,1.78,0,0,1-1.18-.51,1.75,1.75,0,0,1,1.41-3H3l.18,0,6.82.9A5.36,5.36,0,0,0,14,16.8a8.15,8.15,0,0,0,1.15-1.45,11.56,11.56,0,0,0,1.21-4.12v-.13a11.18,11.18,0,0,0-1.3-5.53L15,5.39l-1.59-3a4.62,4.62,0,0,1-.21-.47A1.43,1.43,0,0,1,13.62.44a1.52,1.52,0,0,1,2.14,0,1.49,1.49,0,0,1,.36.58l1.21,3.38a3.83,3.83,0,0,0,3.9,2.34,9.55,9.55,0,0,0,5.35-1.88l1.75-1.29a1.53,1.53,0,0,1,1.93,2.35,1.5,1.5,0,0,1-.31.23l-.23.11L26.11,8a5.06,5.06,0,0,0-1.43.93,1.36,1.36,0,0,0-.45.81c-.05.67.7,1.43,1.47,1.84l1.5.74a1.76,1.76,0,0,1,.5.33,1.51,1.51,0,0,1-2,2.24L24.4,13.77l-.16-.12a5.24,5.24,0,0,0-2.81-1.4,2.05,2.05,0,0,0-1.45.67,5.25,5.25,0,0,0-.91,1.3,7.56,7.56,0,0,0,0,6.57c.79,1.43,2.59,3.36,6.71,4.5L36,28h0a3,3,0,0,1,1.36,5.09Zm-27.74-18a2.39,2.39,0,0,0,2.12-1.3,2.39,2.39,0,1,0-2.12,1.3Z"/></clipPath><linearGradient id="linear-gradient" x1="-3583.32" y1="-4423.69" x2="-3608.89" y2="-4423.35" gradientTransform="translate(5699.8 595.1) rotate(-45)" gradientUnits="userSpaceOnUse"><stop offset="0" stop-color="#f59a00"/><stop offset="1" stop-color="#ed6b06"/></linearGradient><linearGradient id="linear-gradient-2" x1="-3630.94" y1="-4418.05" x2="-3626.52" y2="-4418.05" xlink:href="#linear-gradient"/><linearGradient id="linear-gradient-3" x1="-3610.51" y1="-4403.91" x2="-3603.56" y2="-4403.91" xlink:href="#linear-gradient"/><linearGradient id="linear-gradient-4" x1="-3623.07" y1="-4431.6" x2="-3617.87" y2="-4431.6" xlink:href="#linear-gradient"/></defs><title>Zeichenfläche 4</title><path class="cls-2" d="M39.63,18.78A34,34,0,0,1,36,26.26h-.6c-.93,0-1.42-.34-2-1.3a32.66,32.66,0,0,1-4.11-11.83h1.67a1.9,1.9,0,0,1,1.86,1.54,27.65,27.65,0,0,0,2.39,7.57,32.77,32.77,0,0,0,2.74-9.11h1.32c1.07,0,1.46.48,1.46,1.54A18.21,18.21,0,0,1,39.63,18.78Z"/><path class="cls-2" d="M46.46,21h-2a3.27,3.27,0,0,0,3.51,2.67,5.55,5.55,0,0,0,3.83-1.23h.12v1c0,1.66-1.09,2.93-4.53,2.93a6.29,6.29,0,0,1-6.16-6.52c0-4.33,2.56-7,6.13-7a4.92,4.92,0,0,1,5,5C52.34,20.25,50.6,21,46.46,21ZM47,15.54a2.73,2.73,0,0,0-2.63,2.77l0,.43h1.39c3,0,3.62-.34,3.62-1.25C49.41,16.19,48.48,15.54,47,15.54Z"/><path class="cls-2" d="M60.87,16.28a4.38,4.38,0,0,0-1.81-.38c-1.39,0-2.16.79-2.16,2.77v7.45H56a2,2,0,0,1-2.28-2.07v-6c0-2.6,1.32-5.07,4.62-5.07,1.93,0,2.6,1.13,2.6,2.12v1.15Z"/><path class="cls-2" d="M63.15,11.09a2.17,2.17,0,0,1,1.47-.89h.72v2.93h4.34v1.32A1.68,1.68,0,0,1,67.82,16H65.33v5.07c0,1.68.72,2.33,2,2.33a4.32,4.32,0,0,0,2.25-.46h.12V24.1c0,1.32-.93,2.16-2.74,2.16-3.16,0-4.69-1.78-4.69-4.81V13.66A3.29,3.29,0,0,1,63.15,11.09Z"/><path class="cls-2" d="M75.07,26.24c-2.42,0-3.74-1.42-3.74-4V13.42h.88c1.39,0,2.23.77,2.23,2.4v6.06c0,1.3.53,1.71,1.9,1.71h.58v.7C76.93,25.69,76.4,26.24,75.07,26.24Z"/><path class="cls-1" d="M37.36,33.12a3,3,0,0,1-3.46.59h0L22.2,28a11.47,11.47,0,0,0-4.43-1.13,3.32,3.32,0,0,0-2.43.87,2.9,2.9,0,0,0-.8,1.74L14,35.62a3.74,3.74,0,1,1-6.91-2.31h0l.12-.19,2.3-3.4.44-.68c1.4-2.06,1.86-3.75,1.36-5-.61-1.59-1.45-2.19-3.32-2.39l-5.29-.56a1.78,1.78,0,0,1-1.18-.51,1.75,1.75,0,0,1,1.41-3H3l.18,0,6.82.9A5.36,5.36,0,0,0,14,16.8a8.15,8.15,0,0,0,1.15-1.45,11.56,11.56,0,0,0,1.21-4.12v-.13a11.18,11.18,0,0,0-1.3-5.53L15,5.39l-1.59-3a4.62,4.62,0,0,1-.21-.47A1.43,1.43,0,0,1,13.62.44a1.52,1.52,0,0,1,2.14,0,1.49,1.49,0,0,1,.36.58l1.21,3.38a3.83,3.83,0,0,0,3.9,2.34,9.55,9.55,0,0,0,5.35-1.88l1.75-1.29a1.53,1.53,0,0,1,1.93,2.35,1.5,1.5,0,0,1-.31.23l-.23.11L26.11,8a5.06,5.06,0,0,0-1.43.93,1.36,1.36,0,0,0-.45.81c-.05.67.7,1.43,1.47,1.84l1.5.74a1.76,1.76,0,0,1,.5.33,1.51,1.51,0,0,1-2,2.24L24.4,13.77l-.16-.12a5.24,5.24,0,0,0-2.81-1.4,2.05,2.05,0,0,0-1.45.67,5.25,5.25,0,0,0-.91,1.3,7.56,7.56,0,0,0,0,6.57c.79,1.43,2.59,3.36,6.71,4.5L36,28h0a3,3,0,0,1,1.36,5.09Zm-27.74-18a2.39,2.39,0,0,0,2.12-1.3,2.39,2.39,0,1,0-2.12,1.3Z"/><g class="cls-3"><path class="cls-4" d="M25.44,25.2h0c-3.85-1.15-5.56-3-6.33-4.39a7.55,7.55,0,0,1,0-6.57,5.27,5.27,0,0,1,.91-1.3,2.05,2.05,0,0,1,1.45-.67,5.24,5.24,0,0,1,2.81,1.4l.16.12,1.29,1.07a1.51,1.51,0,0,0,2-2.24,1.77,1.77,0,0,0-.5-.33l-1.5-.74c-.77-.41-1.52-1.18-1.47-1.84a1.36,1.36,0,0,1,.45-.81A5,5,0,0,1,26.11,8l3.61-1.68L30,6.16a1.52,1.52,0,1,0-1.62-2.58L26.58,4.87a9.55,9.55,0,0,1-5.35,1.88C10.11,24.72,25.82,25.3,25.44,25.2Z"/><path class="cls-5" d="M7.61,37.91A3.74,3.74,0,0,0,14,35.62l.57-6.18a2.9,2.9,0,0,1,.8-1.74,3.33,3.33,0,0,1,2.43-.87A11.45,11.45,0,0,1,22.2,28l2.3,1.13c-12.87-9.44-10.8.06-11.08,3.27-.77,8.63-5.9,1.21-6.35,1h0A3.72,3.72,0,0,0,7.61,37.91Z"/><path class="cls-6" d="M33.9,33.71h0a3,3,0,0,0,3.46-4.9,3,3,0,0,0-.55-.44c1.28,6.21-5.8,3.91-5.8,3.91l2.87,1.41Z"/><path class="cls-7" d="M3.28,20.43c-1.53,0-2.15-1.72-2.16-1.74a1.76,1.76,0,0,0,.39,1.88,1.79,1.79,0,0,0,1.18.51L8,21.64c1.87.2,2.71.8,3.32,2.39,0,.08.06.17.08.25h0C11.11,20.17,4.81,20.39,3.28,20.43Z"/></g><circle class="cls-1" cx="72.87" cy="10.35" r="1.91"/></svg>